<svg width="442" height="290" viewBox="0 0 442 290" fill="none" xmlns="http://www.w3.org/2000/svg">
<path fill-rule="evenodd" clip-rule="evenodd" d="M26.3712 230.462H441.451V277.648H26.3712V230.462Z" fill="#FEFEFE"/>
<path fill-rule="evenodd" clip-rule="evenodd" d="M26.3712 218.747H441.451V223.98H26.3712V218.747Z" fill="#FF0000"/>
<path d="M277.038 208.605V95.4496H306.151C315.106 95.4496 322.213 96.0866 327.458 97.398C332.704 98.7094 337.362 100.883 341.447 103.955C345.655 107.015 348.928 110.849 351.251 115.458C353.561 120.067 354.71 124.938 354.71 130.083C354.71 141.536 350.639 150.591 342.483 157.311C334.352 164.018 323.299 167.377 309.348 167.377C307.912 167.377 306.813 167.377 306.076 167.352C305.352 167.327 304.665 167.277 304.053 167.215V208.605H277.038ZM304.053 116.22V146.432H308.949C315.768 146.432 320.964 145.121 324.561 142.485C328.158 139.85 329.944 136.066 329.944 131.132C329.944 125.962 328.183 122.202 324.648 119.817C321.101 117.419 315.456 116.22 307.737 116.22H304.065H304.053Z" fill="white"/>
<path d="M142.812 152.015C142.812 143.622 144.248 135.791 147.158 128.497C150.031 121.166 154.302 114.646 159.923 108.863C164.531 104.067 169.802 100.246 175.722 97.398C176.983 96.7735 177.77 96.4363 178.707 96.0741C185.639 93.189 192.92 91.7652 200.526 91.7652C208.22 91.7652 215.601 93.2515 222.658 96.2115C229.715 99.1715 235.972 103.455 241.442 109.026C246.95 114.596 251.134 121.016 253.957 128.335C256.804 135.629 258.216 143.547 258.216 152.015C258.216 159.097 257.229 165.766 255.256 171.998C253.257 178.231 250.322 183.939 246.413 189.097C240.905 196.428 234.136 202.123 226.093 206.17C218.049 210.242 209.519 212.265 200.526 212.265C192.883 212.265 185.551 210.779 178.545 207.819C171.538 204.859 165.331 200.575 159.923 195.004C154.302 189.247 150.043 182.727 147.158 175.458C144.261 168.214 142.812 160.383 142.812 152.015ZM230.401 152.015C230.401 142.073 227.554 133.768 221.821 127.136C216.088 120.504 208.982 117.169 200.514 117.169C192.096 117.169 185.014 120.504 179.256 127.136C173.499 133.768 170.626 142.073 170.626 152.015C170.626 161.844 173.499 170.1 179.256 176.732C185.014 183.364 192.096 186.699 200.514 186.699C208.982 186.699 216.101 183.401 221.821 176.794C227.554 170.162 230.401 161.907 230.401 152.015ZM26.9332 208.605V95.4496H53.6235V137.003H97.2622V95.4496H104.569C107.554 106.316 110.651 118.156 111.638 121.765C113.761 129.546 115.972 137.277 118.17 145.221C119.269 149.192 120.343 153.014 121.392 156.899C122.129 159.634 122.591 161.008 123.79 163.743V208.618H97.2622V161.145H53.6235V208.618H26.9332V208.605ZM371.472 208.605V95.4371H441.151V118.78H397.687V139.238H441.126V162.406H397.687V184.788H441.788V208.605H371.472Z" fill="#FEFEFE"/>
<path d="M32.566 272.39V235.72H63.3654V241.178H38.3612V251.857H60.9549V257.302H38.3612V272.39H32.566Z" fill="black"/>
<path d="M109.552 272.39L105.256 263.797H82.9866L78.6902 272.39H72.5703L90.9175 235.733H97.6744L115.922 272.39H109.539H109.552ZM91.2048 247.361L85.7343 258.364H102.533L96.95 247.161C96.4504 246.149 95.9633 245.175 95.5012 244.251C95.0391 243.327 94.5769 242.315 94.1023 241.241C93.6402 242.352 93.1656 243.401 92.6785 244.388C92.1914 245.362 91.7043 246.362 91.2048 247.373V247.361Z" fill="black"/>
<path d="M165.406 266.944C164.406 267.744 163.045 268.618 161.334 269.567C159.623 270.504 157.65 271.303 155.426 271.953C153.203 272.602 150.843 272.927 148.345 272.927C145.297 272.927 142.475 272.477 139.839 271.59C137.217 270.704 134.906 269.43 132.945 267.794C130.972 266.158 129.435 264.172 128.336 261.849C127.225 259.526 126.675 256.928 126.675 254.068C126.675 251.382 127.25 248.897 128.386 246.636C129.535 244.363 131.109 242.39 133.132 240.716C135.156 239.043 137.466 237.744 140.077 236.819C142.687 235.895 145.447 235.433 148.345 235.433C150.78 235.433 153.103 235.733 155.314 236.32C157.537 236.919 159.548 237.681 161.346 238.63C163.157 239.58 164.594 240.554 165.668 241.565L162.233 246.336C160.297 244.8 158.162 243.526 155.789 242.515C153.428 241.503 150.768 240.991 147.795 240.991C145.897 240.991 144.036 241.291 142.212 241.903C140.389 242.515 138.753 243.389 137.304 244.526C135.855 245.662 134.706 247.036 133.844 248.635C132.983 250.246 132.558 252.057 132.558 254.08C132.558 256.278 133.008 258.214 133.894 259.863C134.794 261.524 135.993 262.923 137.516 264.059C139.04 265.196 140.776 266.045 142.724 266.595C144.673 267.157 146.684 267.431 148.757 267.431C150.905 267.431 152.816 267.157 154.502 266.62C156.188 266.083 157.687 265.408 159.011 264.609C160.335 263.809 161.534 263.023 162.608 262.248L165.393 266.957L165.406 266.944Z" fill="black"/>
<path d="M187.999 235.72V251.595H214.227V235.72H220.023V272.39H214.227V257.04H187.999V272.39H182.204V235.72H187.999Z" fill="black"/>
<path d="M271.692 272.39L267.396 263.797H245.127L240.83 272.39H234.71L253.058 235.733H259.814L278.049 272.39H271.667H271.692ZM253.345 247.361L247.874 258.364H264.673L259.09 247.161C258.591 246.149 258.103 245.175 257.641 244.251C257.179 243.327 256.717 242.315 256.242 241.241C255.78 242.352 255.306 243.401 254.819 244.388C254.332 245.362 253.844 246.362 253.345 247.373V247.361Z" fill="black"/>
<path d="M311.771 235.72C315.243 235.72 318.291 236.195 320.914 237.157C323.537 238.118 325.747 239.442 327.508 241.141C329.282 242.839 330.618 244.788 331.505 247.011C332.404 249.234 332.841 251.57 332.841 254.055C332.841 257.402 332.042 260.475 330.456 263.247C328.87 266.02 326.509 268.243 323.399 269.904C320.289 271.566 316.405 272.39 311.759 272.39H292.762V235.733H311.759L311.771 235.72ZM311.497 266.932C315.069 266.932 317.966 266.357 320.189 265.208C322.412 264.059 324.049 262.498 325.098 260.55C326.147 258.589 326.684 256.428 326.684 254.055C326.684 251.745 326.159 249.621 325.098 247.66C324.049 245.7 322.412 244.138 320.189 242.939C317.966 241.753 315.069 241.153 311.497 241.153H298.57V266.919H311.497V266.932Z" fill="black"/>
<path d="M380.551 272.39L376.255 263.797H353.986L349.69 272.39H343.57L361.917 235.733H368.674L386.921 272.39H380.539H380.551ZM362.204 247.361L356.734 258.364H373.532L367.949 247.161C367.45 246.149 366.963 245.175 366.501 244.251C366.039 243.327 365.576 242.315 365.102 241.241C364.64 242.352 364.165 243.401 363.678 244.388C363.191 245.362 362.704 246.362 362.204 247.373V247.361Z" fill="black"/>
<path d="M402.383 261.074C404.494 263.197 406.742 264.858 409.115 266.045C411.488 267.231 414.311 267.831 417.571 267.831C419.432 267.831 421.218 267.606 422.941 267.182C424.652 266.744 426.076 266.082 427.175 265.196C428.287 264.309 428.836 263.185 428.836 261.823C428.836 260.637 428.349 259.738 427.363 259.126C426.376 258.514 424.965 258.039 423.129 257.714C421.28 257.377 419.045 257.065 416.397 256.74C413.174 256.316 410.389 255.691 408.029 254.854C405.668 254.017 403.845 252.881 402.558 251.445C401.272 250.008 400.622 248.21 400.622 246.049C400.622 243.739 401.359 241.79 402.845 240.179C404.332 238.568 406.33 237.344 408.853 236.482C411.376 235.62 414.186 235.196 417.308 235.196C421.13 235.196 424.44 235.758 427.213 236.869C429.985 237.981 432.171 239.579 433.782 241.64L429.923 245.774C428.524 244.138 426.763 242.802 424.64 241.79C422.517 240.778 420.019 240.266 417.159 240.266C415.223 240.266 413.487 240.466 411.95 240.866C410.414 241.266 409.19 241.853 408.303 242.627C407.404 243.389 406.967 244.326 406.967 245.4C406.967 246.686 407.442 247.71 408.391 248.46C409.34 249.209 410.676 249.796 412.413 250.221C414.149 250.645 416.159 250.982 418.445 251.27C420.593 251.52 422.667 251.819 424.665 252.181C426.663 252.544 428.462 253.068 430.06 253.755C431.647 254.43 432.908 255.366 433.82 256.528C434.731 257.702 435.194 259.213 435.194 261.062C435.194 263.435 434.469 265.508 433.02 267.294C431.572 269.08 429.523 270.454 426.875 271.428C424.228 272.402 421.118 272.889 417.533 272.889C413.637 272.889 410.127 272.327 407.017 271.216C403.907 270.104 401.147 268.281 398.749 265.77L402.396 261.062L402.383 261.074Z" fill="black"/>
<path d="M252.708 76.3028C289.615 74.0172 273.728 87.6933 252.62 86.9814C231.688 86.2695 225.393 85.1329 210.493 76.7024C207.533 74.9414 199.44 68.4718 192.458 70.4951C181.967 73.5301 184.889 99.8457 167.017 86.7441C154.889 77.8515 140.576 40.57 140.164 44.7041C139.477 64.5251 138.79 84.3586 138.103 104.18C137.691 114.246 137.641 124.325 137.004 134.317C136.679 139.4 136.38 144.334 136.042 149.429C135.705 154.475 137.029 160.907 132.008 162.381C127.362 162.469 125.951 157.098 124.652 152.302C123.515 148.118 122.366 143.996 121.18 139.738C118.807 131.182 116.434 122.877 114.148 114.496C113.174 110.924 109.452 98.6842 106.579 86.9689C103.557 74.6042 101.384 62.8515 99.9225 64.3627C94.2148 70.7449 94.4271 81.1862 85.5345 82.3852C79.0524 82.4477 79.527 73.8298 75.5803 72.1188C70.9841 70.6825 63.4279 81.2612 55.2472 84.3211C44.8933 88.1929 33.228 83.4343 25.0848 80.262C13.944 75.491 -1.73042 65.5742 0.155514 63.8756C1.62929 62.4018 16.0298 70.7824 24.7476 75.4035C52.6244 89.6417 62.9658 64.625 74.2938 63.6633C83.4487 62.8889 81.8875 70.3327 87.5328 72.4185C88.5944 72.8182 91.6544 64.2503 93.7027 58.9172C96.1257 52.61 100.147 38.5217 107.604 51.8731C111.263 58.4177 114.635 68.4843 117.033 75.3785C120.405 85.0955 125.002 97.8848 129.223 106.715C133.932 108.126 131.059 20.0621 135.48 5.46172C138.128 -3.25602 140.639 -0.420881 142.762 6.17363C147.158 19.8498 148.045 24.5334 153.528 38.9214C155.489 43.58 172.137 80.7741 177.683 79.5501C185.551 75.3286 183.366 54.7332 209.631 64.5625C224.219 70.0205 221.734 76.078 252.695 76.3153L252.708 76.3028Z" fill="#FF0000"/>
<path fill-rule="evenodd" clip-rule="evenodd" d="M26.3712 284.767H441.451V290H26.3712V284.767Z" fill="#FF0000"/>
</svg>
